<?xml version="1.0" encoding="UTF-8"?>
<svg id="Layer_1" data-name="Layer 1" xmlns="http://www.w3.org/2000/svg" viewBox="0 0 1500 500">
  <defs>
    <style>
      .cls-1 {
        fill: #000;
        stroke-width: 0px;
      }
    </style>
  </defs>
  <g>
    <polygon class="cls-1" points="1246.28 164.03 1368.61 10.65 1493.69 164.03 1246.28 164.03"/>
    <polygon class="cls-1" points="1098.38 10.65 972.39 170.42 1235.32 500 1364.96 338.41 1098.38 10.65"/>
  </g>
  <g>
    <path class="cls-1" d="M650.59,132.34c3.52,1.82,6.9,3.84,10.18,6.06l-2.62-1.83c6.34,4.47,12.12,9.63,17.12,15.57,2.46,2.92,4.73,6.01,6.78,9.23,1.02,1.61,2,3.24,2.91,4.91.46.83.9,1.68,1.33,2.52-.76-1.53-.75-1.47.03.2,1.44,3.54,2.87,7.03,3.96,10.71.4,1.37.78,2.76,1.11,4.15.22.93.43,1.86.63,2.8-.51-2.85-.58-3.17-.21-.96.24,1.91.52,3.81.69,5.73.08.96.15,1.93.2,2.89.1,2.62.1,1.93,0-2.06-.41,1.71-.14,4.08-.21,5.85-.24,2.89-.13,1.96.34-2.78-.13,1.03-.27,2.05-.44,3.07-1.29,8.04,1.6-5.53.15-.37-.25,1-.52,1.99-.8,2.98-.93,3.08-.56,1.97,1.1-3.33-.77,1.74-1.69,3.88-2.17,5.72,1.99-4.4,2.37-5.26,1.13-2.57-.43.91-.88,1.82-1.34,2.71-.46.89-.94,1.78-1.42,2.66-1.32,2.29-.98,1.75,1.02-1.63-.99.85-1.71,2.67-2.45,3.73-1.12,1.62-2.34,3.15-3.5,4.73-1.43,1.74-1.21,1.52.65-.67-.63.72-1.28,1.43-1.94,2.13-2.57,2.73-5.33,5.29-8.27,7.63-.52.41-5.23,3.67-2.15,1.7-1.5.96-3.03,1.86-4.61,2.69-5.95,3.14-12.36,5.17-19.05,5.84l3.18-.28c-11.87.91-22.72-3.18-32.42-9.8l2.62,1.83c-20.94-14.68-34.48-37.34-54.81-52.66-10.37-7.81-20.59-12.67-33.79-11.22-15.51,1.71-27.37,14.43-36.02,26.38-11.58,15.99-19.99,34.23-28.7,51.86-4.86,9.83-9.78,19.63-15.05,29.25-1.23,2.25-2.49,4.49-3.76,6.71-1.07,1.87-6.5,10.72-1.13,2.04-1.57,2.54-3.12,5.11-4.72,7.64-7.15,11.28-14.86,22.21-23.09,32.73-2.14,2.74-4.32,5.46-6.54,8.15-1.2,1.46-2.43,2.91-3.64,4.37-2.23,2.68.64-.84.94-1.08-.91.76-1.77,2.05-2.56,2.94-5.37,6.13-10.92,12.1-16.62,17.93-31.17,31.84-66.83,58.88-104.01,81.3-10.84,6.54-15.65,22.32-17.32,34.2-.83,5.92-2,13.25.29,18.95,1.11,2.76,3.7,7.58,7.6,5.22,47.45-28.62,91.78-62.86,128.28-104.75,13.88-15.93,26.88-32.53,38.39-50.25,15.26-23.49,27.66-48.41,40.13-73.43,3.32-6.67,6.7-13.32,10.38-19.8.35-.62.72-1.23,1.07-1.86,1.53-2.77-2.81,4.53-1.16,1.91.84-1.33,1.66-2.67,2.52-3.98,1.62-2.47,3.33-4.89,5.16-7.21.37-.47.78-.92,1.13-1.4,1.5-2.03-2.95,3.03-1.14,1.36.96-.89,1.8-1.92,2.75-2.83s1.86-1.72,2.84-2.52c.41-.33.84-.64,1.24-.99,2.17-1.86-2.07,1.05-.42.22,4.52-2.28,8.58-4.13,13.7-4.69l-3.18.28c9.48-.72,17.99,2.72,25.7,8l-2.62-1.83c14.91,10.52,26.13,25.42,38.8,38.35,12.37,12.62,27.84,26.19,46.27,27.64,26.22,2.06,48.71-16.56,62.8-36.94,20.72-29.99,32.34-71.01,26.3-107.35-5.27-31.7-23.02-58.41-51.81-73.33-3.5-1.81-8.75,4.83-10.02,6.56-4.1,5.6-7.11,13.33-8.77,19.98s-3.37,14.54-2.39,21.69c.58,4.22,1.24,8.54,5.4,10.69h0Z"/>
    <g>
      <path class="cls-1" d="M359.85,150.23c1.75.9,3.41,1.89,5.04,2.99l-2.62-1.83c4.84,3.44,9.03,7.61,12.65,12.31,1.9,2.48,3.64,5.08,5.21,7.78.75,1.29,1.48,2.6,2.13,3.93-1.17-2.39,1.01,2.54,1.3,3.31,1.24,3.17,2.26,6.43,3.08,9.73.11.45.7,1.91.54,2.33.02-.04-.53-3.67-.23-1.24.27,2.16.6,4.3.76,6.47.05.69-.09,1.82.15,2.47-.03-.09.12-4.96-.06-2.27-.03.5-.12,5.62-.3,5.63-.2,0,.88-6.39.37-3.84-.13.67-.22,1.36-.32,2.03-.18,1.16-.8,3.92.32-1.35,1.25-5.86.19-1.31-.09-.18-1.17,4.67,2.79-7.3.91-2.99-.24.55-.48,1.13-.67,1.69-.76,2.23,1.84-4.05,1.78-4.02-.52.19-1.59,2.92-1.87,3.59-.95,2.25,1.73-3.55,1.86-3.08.08.28-1.04,1.59-1.22,1.85-.71,1.04-1.5,2.04-2.24,3.06-.3.42-.73.8-1,1.25-.1.18,3.24-3.42,1.73-2.04-1.72,1.59-3.24,3.41-4.99,4.98-1.53,1.37-3.13,2.67-4.78,3.9-.27.2-2.21,1.32-2.21,1.58,0-.64,3.11-1.95,1.22-.83-.48.29-.95.6-1.43.89-2.85,1.73-5.81,3.27-8.86,4.62-5.54,2.45-11.12,4.06-17.17,4.71l3.18-.28c-11.77,1.02-23.69-1.33-33.62-7.88l2.62,1.83c-4.13-2.9-7.72-6.39-10.48-10.63-.33-.5-2.06-3.65-1.26-2.01s-.68-1.8-.88-2.38c-.51-1.43-.83-2.91-1.26-4.36-.73-2.44.24,1.17.21,1.15-.37-.32-.32-2.56-.37-3.07-.13-1.32-.17-2.65-.27-3.97-.3-4.05-.06,5.63.06,3.1.05-1.16.02-2.32.07-3.48s.18-2.31.23-3.46c.1-2.86-.24,4.22-.4,3.71-.17-.54.27-1.91.35-2.47.1-.63.09-2.11.44-2.63.2-.29-1.65,6.73-.76,3.48.37-1.33.59-4.92,1.59-5.87.33-.31-2.39,6.83-1.19,3.78.29-.75.54-1.52.82-2.27.14-.37,1.52-4.31,1.7-4.28.11.02-2.67,5.8-1.54,3.47.29-.61.57-1.23.86-1.84.62-1.29,1.26-2.58,1.93-3.85.57-1.08,1.16-2.15,1.75-3.21,2.03-3.64-.88,1.94-1.66,2.71.6-.59,1-1.6,1.48-2.31,1.28-1.89,2.66-3.71,4.07-5.5.51-.64,1.04-1.27,1.54-1.91,1.97-2.51-3.4,3.72-1.08,1.26,1.5-1.6,2.96-3.22,4.53-4.75,1.83-1.79,3.74-3.5,5.75-5.09,1.04-.83,2.13-1.57,3.18-2.38-2.48,1.93-.38.27.96-.49,4.9-2.78,10.18-4.59,15.8-5.08l-3.18.28c5.6-.28,10.79.88,15.85,3.26,3.6,1.69,8.65-4.69,10.02-6.56,4.1-5.6,7.11-13.33,8.77-19.98s3.37-14.54,2.39-21.69c-.56-4.11-1.2-8.72-5.4-10.69-26.93-12.67-53.11,12.68-67.21,33.2-10.59,15.41-18.09,33.42-22.89,51.4-5.49,20.59-8.18,43.81-2.86,64.78,7.42,29.23,39.57,41.88,66.91,33.31,22.96-7.2,41.5-25.66,51.57-47.12,12.77-27.23,17.72-59.36,9.53-88.67-5.33-19.05-17.07-37.67-35.04-46.91-3.51-1.8-8.74,4.82-10.02,6.56-4.1,5.6-7.11,13.33-8.77,19.98s-3.37,14.54-2.39,21.69c.58,4.21,1.23,8.55,5.4,10.69Z"/>
      <path class="cls-1" d="M298.07,175.04c-24.53,8.32-49.5,15.36-74.76,21.08-25.85,5.85-52.08,12.53-78.55,14.86l3.18-.28c-9.6.77-21.06,1.46-29.52-4.05l2.62,1.83c-1-.7-1.94-1.46-2.77-2.36-.41-.44-.8-.9-1.15-1.38-.2-.27-.36-.58-.57-.84-1.58-1.92,1.21-.39.48,1.14.11-.22-.67-2.05-.79-2.35-1.12-2.82.74,4.92.38,1.82-.42-3.56-.17,6.49.02,2.78s-1.15,8.02-.33,2.97-1.5,5.84-.86,3.85c.44-1.35,1.72-5.7-.17.14s-.43,1.39.08.04,1.09-2.61,1.58-3.93c-3.6,9.65-.21.67,1.13-1.91s2.77-5.12,4.21-7.65c2.16-3.8-2.81,4.53-.48.78.73-1.18,1.46-2.36,2.2-3.53,1.61-2.54,3.26-5.06,4.94-7.56,3.26-4.84,6.64-9.61,10.07-14.33,7.32-10.06,14.72-20.11,22.5-29.8.57-.71,3.93-4.82,2.12-2.64s1.38-1.52,1.97-2.15c1.95-2.08,3.98-4.1,6.17-5.92.56-.47,1.16-.9,1.72-1.37,1.85-1.53-.68.12-.83.51.24-.6,2.4-1.35,2.99-1.61,2.08-.95,4.23-1.53,6.49-1.79l-3.18.28c5.41-.36,10.26,1.49,14.69,4.5l-2.62-1.83c6.14,4.43,10.92,10.43,14.97,16.78,1.11,1.73,2.16,3.5,3.16,5.3.5.89,3.39,6.51,1.75,3.16,2.04,4.19,3.88,8.49,5.55,12.84,3.28,8.52,5.95,17.28,7.99,26.18.46,2.02.71,4.21,1.3,6.19-1.8-6.01,0,.35.23,1.94.54,3.79.84,7.57,1.09,11.38.32,4.94.07-6.89,0-.21-.02,1.72-.08,3.43-.18,5.15-.09,1.54-.25,3.07-.36,4.61.83-10.92.3-2.94-.15-.2-.27,1.7-.62,3.37-.93,5.06,1.95-10.6,1.53-6.83.93-4.41-.21.84-.4,1.68-.62,2.51-.43,1.68-.9,3.34-1.39,5-.39,1.29-1.6,5.05.31-.88,2.01-6.26.38-1.25-.1.1-1.12,3.15-2.41,6.23-3.68,9.32s3.4-7.44,1.47-3.34c-.38.81-.75,1.62-1.14,2.42-.85,1.78-1.74,3.54-2.65,5.29-1.68,3.22-3.5,6.35-5.31,9.5,4.47-7.78.98-1.68-.17.12s-2.42,3.73-3.68,5.56c-4.25,6.23-8.8,12.25-13.57,18.08-1.21,1.48-2.49,2.91-3.67,4.4,4.17-5.24,0-.05-1.1,1.2-2.83,3.18-5.72,6.3-8.66,9.36-11.02,11.49-22.79,22.26-35.01,32.47-11.81,9.86-24.05,19.19-36.59,28.09-2.9,2.06-5.82,4.09-8.75,6.11-1.43.98-2.87,1.96-4.31,2.94-.37.25-2.81,2.33-.86.59s-1.22.8-1.69,1.12c-5.39,3.56-10.83,7.05-16.31,10.47-16.66,10.39-33.7,20.19-51.14,29.2-10.99,5.67-15.74,22.93-17.32,34.2-.53,3.74-2.5,29.54,7.9,24.17,34.75-17.95,68.18-38.81,99.64-62.03,46.59-34.38,91.98-76.79,116.14-130.41,14.83-32.91,23.84-70.04,18.21-106.22-2.66-17.09-7.1-33.92-13.99-49.8-5.92-13.64-13.28-28.85-25.48-38.02-4.98-3.74-10.32-6.99-16.74-6.95-8.23.06-14.44,3.41-20.82,8.45-7.3,5.78-13.25,13.44-19,20.68s-11.44,14.95-17.05,22.5c-10.78,14.51-21.04,29.41-29.8,45.25-11.68,21.11-21.02,46.22-19.47,70.69.82,12.92,6.25,24.6,19.4,28.28,12.27,3.43,26.39,1.11,38.71-.72,19.57-2.89,38.9-7.38,58.21-11.64,20.67-4.56,41.16-9.8,61.4-16,7.03-2.15,14.03-4.42,20.99-6.78,4.46-1.51,8.22-8.13,10.14-11.79,3.5-6.68,6.13-14.95,7.18-22.41.71-5.03,3.14-27.91-7.9-24.17h0Z"/>
    </g>
    <path class="cls-1" d="M692.78,466.12c33.45-17.28,65.64-37.28,96.08-59.42,45.69-33.23,89.41-73.47,115.54-124.33,16.15-31.43,25.45-66.84,23.71-102.3-.79-15.98-4.53-32.14-9.56-47.29s-11.66-30.51-21.4-43.15c-7.75-10.05-18.64-18.7-31.97-16.5-16.06,2.65-28.38,20.81-37.48,32.6-21.49,27.85-44.75,57.36-56.02,91.1-4.67,13.99-8.13,28.57-7.26,43.43.41,6.97,2.07,15.02,6.78,20.49,7.09,8.25,18.8,9.17,28.89,8.86,17.5-.53,34.89-3.95,52-7.41,15.08-3.05,30.12-6.28,45.09-9.85,3.83-.92,7.67-1.83,11.5-2.75,4.29-1.03,8.47-8.61,10.14-11.79,3.5-6.68,6.13-14.95,7.18-22.41.83-5.87,3.37-26.87-7.9-24.17-32.38,7.76-65.28,16.43-98.51,19.34l3.18-.28c-9.85.79-22.03,1.67-30.6-4.28l2.62,1.83c-1.02-.77-1.96-1.6-2.77-2.59-.44-.53-.76-1.16-1.2-1.69-1.3-1.6.96,3.27.27.33-.21-.88-.97-4.04-.22-.26,1.05,5.29.11-4.39.2,2.3.1,7.18.71-5.07-.2,3.12-.65,5.86.11,1.01.18-.29.04-.83-2,8.05-1.13,5.36.17-.51.29-1.06.42-1.58,1.07-4.42-2.79,7.78-1.11,3.41.42-1.11.81-2.23,1.25-3.33.22-.56.49-1.12.7-1.69,1.11-3.03-2.97,6.26-1.48,3.32,2.51-4.92,5.16-9.75,7.74-14.63.15-.28-2.96,4.85-1.53,2.55.37-.59.72-1.18,1.09-1.77.73-1.18,1.47-2.35,2.22-3.52,1.62-2.53,3.28-5.04,4.97-7.53,3.26-4.81,6.63-9.54,10.06-14.23,7.24-9.91,14.52-19.83,22.23-29.37.48-.6.97-1.19,1.46-1.79,1.67-2.06.4-.17-.61.66,1.18-.97,2.14-2.42,3.2-3.53,1.94-2.05,3.96-4.02,6.15-5.8.42-.34.87-.67,1.29-1.02,1.85-1.53-.68.12-.83.51.24-.6,2.4-1.35,2.99-1.61,2.08-.95,4.23-1.53,6.49-1.79l-3.18.28c5.41-.36,10.26,1.49,14.69,4.5l-2.62-1.83c6.14,4.43,10.92,10.43,14.97,16.78,1.11,1.73,2.16,3.5,3.16,5.3.5.89,3.39,6.51,1.75,3.16,2.04,4.19,3.88,8.49,5.55,12.84,3.28,8.52,5.95,17.28,7.99,26.18.46,2.02.71,4.21,1.3,6.19-1.8-6.01,0,.35.23,1.94.54,3.79.84,7.57,1.09,11.38.32,4.94.07-6.89,0-.21-.02,1.72-.08,3.43-.18,5.15-.09,1.54-.25,3.07-.36,4.61.83-10.92.3-2.94-.15-.2-.27,1.7-.62,3.37-.93,5.06,1.95-10.6,1.53-6.83.93-4.41-.21.84-.4,1.68-.62,2.51-.43,1.68-.9,3.34-1.39,5-.39,1.29-1.6,5.05.31-.88,2.01-6.26.38-1.25-.1.1-1.12,3.15-2.41,6.23-3.68,9.32s3.4-7.44,1.47-3.34c-.38.81-.75,1.62-1.14,2.42-.85,1.78-1.74,3.54-2.65,5.29-1.68,3.22-3.5,6.35-5.31,9.5,4.47-7.78.98-1.68-.17.12s-2.42,3.73-3.68,5.56c-4.25,6.23-8.8,12.25-13.57,18.08-1.21,1.48-2.49,2.91-3.67,4.4,4.17-5.24,0-.05-1.1,1.2-2.83,3.18-5.72,6.3-8.66,9.36-11.02,11.49-22.79,22.26-35.01,32.47-11.81,9.86-24.05,19.19-36.59,28.09-2.9,2.06-5.82,4.09-8.75,6.11-1.43.98-2.87,1.96-4.31,2.94-.37.25-2.81,2.33-.86.59s-1.22.8-1.69,1.12c-5.39,3.56-10.83,7.05-16.31,10.47-16.66,10.39-33.7,20.19-51.14,29.2-10.99,5.67-15.74,22.93-17.32,34.2-.53,3.74-2.5,29.54,7.9,24.17h0Z"/>
    <path class="cls-1" d="M525.04,410.89c.51-.61,1.11-1.21,1.55-1.86-2.95,4.33-1.52,1.75-.51.66,1.23-1.33,2.44-2.66,3.69-3.96,3.09-3.2,6.32-6.27,9.68-9.19s7.18-5.94,10.98-8.65c3.37-2.4,7.23-4.74,11.98-7.3,17.91-9.64,37.63-15.14,57.84-17l-3.18.28c20.53-1.69,41.28.22,61.16,5.59,4.03,1.09,8.17-4.04,10.02-6.56,4.1-5.6,7.11-13.33,8.77-19.98s3.37-14.54,2.39-21.69c-.49-3.59-1.11-9.54-5.4-10.69-17.42-4.7-35.57-6.81-53.6-6.07-31.36,1.29-60.14,10.67-85.95,28.61-12.89,8.96-23.72,19.99-33.7,32.03-4.26,5.14-7.1,13.73-8.77,19.98s-3.32,14.87-2.39,21.69c.49,3.58,1.11,9.55,5.4,10.69s7.88-3.98,10.02-6.56h0Z"/>
    <path class="cls-1" d="M483.95,87.49c1.37,11.89,2.74,23.77,4.11,35.66.36,3.13,1.35,9.61,5.4,10.69s8.25-4,10.02-6.56c7.72-11.19,12.74-27.97,11.16-41.66-1.37-11.89-2.74-23.77-4.11-35.66-.36-3.13-1.35-9.61-5.4-10.69s-8.25,4-10.02,6.56c-7.72,11.19-12.74,27.97-11.16,41.66h0Z"/>
  </g>
</svg>